<?xml version="1.0" standalone="no"?>
<!DOCTYPE svg PUBLIC "-//W3C//DTD SVG 20010904//EN"
 "http://www.w3.org/TR/2001/REC-SVG-20010904/DTD/svg10.dtd">
<svg version="1.0" xmlns="http://www.w3.org/2000/svg"
 width="127.000000pt" height="127.000000pt" viewBox="0 0 127.000000 127.000000"
 preserveAspectRatio="xMidYMid meet">
<metadata>
Created by potrace 1.14, written by Peter Selinger 2001-2017
</metadata>
<g transform="translate(0.000000,127.000000) scale(0.100000,-0.100000)"
fill="#000000" stroke="none">
<path d="M196 1249 l-26 -20 0 -594 0 -594 26 -20 c26 -20 37 -21 439 -21 402
0 413 1 439 21 l26 20 0 496 0 495 -107 118 -108 119 -331 0 c-321 1 -332 0
-358 -20z m642 -149 c2 -68 7 -107 15 -112 7 -4 51 -8 100 -8 l87 0 -2 -457
-3 -458 -400 0 -400 0 -3 560 c-1 308 0 566 3 573 3 10 69 12 302 10 l298 -3
3 -105z m134 -22 l19 -28 -45 0 -46 0 0 52 0 51 26 -24 c14 -13 35 -36 46 -51z"/>
<path d="M325 910 c-4 -6 -1 -17 5 -25 10 -13 59 -15 285 -15 151 0 280 3 289
6 9 3 16 15 16 25 0 18 -12 19 -294 19 -194 0 -297 -4 -301 -10z"/>
<path d="M330 746 c-27 -33 -1 -36 296 -36 l295 0 -3 23 -3 22 -286 3 c-242 2
-288 0 -299 -12z"/>
<path d="M333 589 c-6 -6 -9 -18 -6 -25 4 -11 59 -14 300 -14 l294 0 -3 23 -3
22 -285 3 c-203 2 -289 -1 -297 -9z"/>
<path d="M325 420 c-17 -27 16 -30 301 -30 287 0 294 0 294 20 0 20 -7 20
-294 20 -186 0 -297 -4 -301 -10z"/>
</g>
</svg>
